<?xml version="1.0" encoding="utf-8"?>
<!-- Generator: Adobe Illustrator 28.2.0, SVG Export Plug-In . SVG Version: 6.00 Build 0)  -->
<svg version="1.1" id="Layer_1" xmlns="http://www.w3.org/2000/svg" xmlns:xlink="http://www.w3.org/1999/xlink" x="0px" y="0px"
	 viewBox="0 0 356.3 48.9" style="enable-background:new 0 0 356.3 48.9;" xml:space="preserve">
<style type="text/css">
	.st0{fill:#57B947;}
	.st1{fill:#737476;}
</style>
<g>
	<path class="st0" d="M20.2,39.4c-1.5,0.7-3.1,1.1-4.8,1.1c-1.6,0-3.3-0.3-5-1.1c-1.7-0.7-3.3-1.9-5-3.4c-1.6-1.5-2.8-3.1-3.7-4.7
		c-0.8-1.6-1.3-3.2-1.4-4.9c-0.1-1.6,0.2-3.3,0.8-4.8c0.6-1.6,1.6-3.1,2.9-4.5L19.3,0.8c0.2,0.1,0.6,0.3,1,0.6
		c0.5,0.3,0.9,0.6,1.3,1c0.8,0.7,1.3,1.5,1.4,2.1c0.1,0.7-0.2,1.4-0.9,2.2L8.7,21.1c-1.8,2-2.7,4-2.5,6c0.1,2,1,3.8,2.7,5.3
		c0.8,0.8,1.7,1.4,2.7,1.7c0.9,0.4,1.9,0.6,2.9,0.6c1,0,2-0.3,3-0.7c1-0.5,1.9-1.2,2.9-2.2l5.8-6.9c0.2,0.1,0.6,0.3,1,0.6
		c0.5,0.3,0.9,0.6,1.3,1c0.8,0.7,1.3,1.5,1.4,2.1c0.1,0.7-0.2,1.4-0.9,2.2l-4.3,5.3C23.1,37.6,21.7,38.7,20.2,39.4z"/>
	<path class="st0" d="M76.1,35c0,2.9-1.1,5.2-3.3,6.9c-2.2,1.7-5.4,2.5-9.5,2.5c-1.7,0-3.3-0.1-4.7-0.4c-1.4-0.3-2.7-0.6-3.7-1.1
		c-1-0.5-1.8-1.1-2.4-1.7c-0.6-0.7-0.9-1.4-0.9-2.2c0-0.7,0.2-1.3,0.5-1.8c0.3-0.6,0.8-1,1.3-1.4c1.2,0.8,2.6,1.5,4.2,2.2
		c1.6,0.7,3.4,1,5.5,1c2,0,3.5-0.3,4.5-1c1.1-0.7,1.6-1.7,1.6-2.9c0-1.1-0.4-2-1.1-2.6c-0.7-0.7-1.8-1.2-3.2-1.5l-4.5-1.2
		c-3-0.8-5.2-1.9-6.6-3.2c-1.4-1.4-2.1-3.2-2.1-5.6c0-1.3,0.3-2.5,0.8-3.6c0.5-1.1,1.3-2.1,2.3-2.9c1-0.8,2.3-1.4,3.9-1.9
		c1.5-0.5,3.3-0.7,5.3-0.7c1.6,0,3,0.1,4.3,0.4c1.3,0.2,2.4,0.6,3.4,1c0.9,0.4,1.7,0.9,2.2,1.5c0.5,0.6,0.8,1.3,0.8,2
		c0,0.7-0.2,1.3-0.5,1.8c-0.3,0.5-0.7,0.9-1.2,1.2c-0.8-0.5-2-1-3.5-1.6c-1.6-0.6-3.2-0.9-5-0.9c-1.8,0-3.3,0.3-4.3,1
		c-1.1,0.6-1.6,1.5-1.6,2.7c0,0.9,0.3,1.6,0.9,2.2c0.6,0.6,1.6,1,3.1,1.4l3.8,1c3.3,0.9,5.8,2.1,7.4,3.6
		C75.3,30.5,76.1,32.5,76.1,35z"/>
	<path class="st0" d="M86.7,37.9c0.9,0.7,2.2,1,3.9,1c0.7,0,1.5-0.1,2.4-0.3c0.8-0.2,1.6-0.5,2.2-0.8c0.3,0.4,0.6,0.7,0.8,1.2
		c0.2,0.4,0.4,1,0.4,1.6c0,1.1-0.6,2.1-1.7,2.8c-1.2,0.7-2.9,1.1-5.3,1.1c-3.3,0-5.9-0.7-7.9-2.2c-2-1.5-2.9-3.9-2.9-7.3V4.2
		c0.3-0.1,0.7-0.2,1.3-0.3c0.6-0.1,1.2-0.2,1.8-0.2c1.3,0,2.2,0.2,2.8,0.7c0.6,0.5,0.9,1.3,0.9,2.4v6.5h6.5c0.2,0.3,0.3,0.6,0.5,1.1
		c0.2,0.5,0.2,1,0.2,1.5c0,1.9-0.8,2.8-2.4,2.8h-4.8v15.7C85.3,36.1,85.7,37.2,86.7,37.9z"/>
	<path class="st0" d="M156.3,37.9c0.9,0.7,2.2,1,3.9,1c0.7,0,1.5-0.1,2.4-0.3c0.8-0.2,1.6-0.5,2.2-0.8c0.3,0.4,0.6,0.7,0.8,1.2
		c0.2,0.4,0.4,1,0.4,1.6c0,1.1-0.6,2.1-1.7,2.8c-1.2,0.7-2.9,1.1-5.3,1.1c-3.3,0-5.9-0.7-7.9-2.2c-2-1.5-2.9-3.9-2.9-7.3V4.2
		c0.3-0.1,0.7-0.2,1.3-0.3c0.6-0.1,1.2-0.2,1.8-0.2c1.3,0,2.2,0.2,2.8,0.7c0.6,0.5,0.9,1.3,0.9,2.4v6.5h6.5c0.2,0.3,0.3,0.6,0.5,1.1
		c0.2,0.5,0.2,1,0.2,1.5c0,1.9-0.8,2.8-2.4,2.8h-4.8v15.7C154.9,36.1,155.3,37.2,156.3,37.9z"/>
	<path class="st0" d="M109.9,11.7c4.1,0,7.3,0.9,9.7,2.7c2.4,1.8,3.6,4.6,3.6,8.4v15.3c0,1-0.2,1.8-0.7,2.3
		c-0.5,0.5-1.1,1.1-1.9,1.5c-1.1,0.7-2.6,1.2-4.4,1.7c-1.8,0.5-3.9,0.7-6.3,0.7c-4.3,0-7.6-0.8-10-2.5c-2.4-1.7-3.6-4.1-3.6-7.4
		c0-2.9,0.9-5.1,2.8-6.6c1.9-1.5,4.6-2.5,8.1-2.8l9.1-0.9v-1.4c0-1.9-0.6-3.3-1.9-4.2c-1.3-0.9-3-1.3-5.2-1.3
		c-1.8,0-3.4,0.2-5.1,0.7c-1.6,0.5-3.1,1-4.3,1.6c-0.4-0.3-0.8-0.8-1.1-1.3c-0.3-0.5-0.5-1.1-0.5-1.7c0-0.7,0.2-1.4,0.6-1.8
		c0.4-0.5,1-0.9,1.7-1.3c1.2-0.6,2.6-1.1,4.2-1.3C106.4,11.9,108.1,11.7,109.9,11.7z M110,39.1c1.5,0,2.9-0.2,4-0.5
		c1.1-0.3,2-0.6,2.4-1v-8.4l-7.2,0.7c-2,0.2-3.5,0.7-4.5,1.3c-1,0.7-1.5,1.7-1.5,3.1c0,1.4,0.5,2.6,1.6,3.4
		C106,38.6,107.7,39.1,110,39.1z"/>
	<path class="st0" d="M132.7,43.4c-0.3,0.1-0.7,0.3-1.3,0.4c-0.5,0.1-1.2,0.2-1.8,0.2c-1.3,0-2.2-0.2-2.8-0.7
		c-0.6-0.5-0.9-1.3-0.9-2.4V19.2c0-1.1,0.2-2,0.7-2.7c0.4-0.7,1.1-1.3,2.1-1.9c1.3-0.8,2.9-1.4,4.9-2c2-0.5,4.1-0.8,6.5-0.8
		c3.9,0,5.8,1.1,5.8,3.3c0,0.5-0.1,1-0.3,1.5c-0.2,0.5-0.4,0.9-0.6,1.2c-0.4-0.1-1-0.2-1.6-0.3c-0.7-0.1-1.4-0.1-2.1-0.1
		c-1.8,0-3.4,0.2-4.8,0.6c-1.4,0.4-2.7,0.8-3.7,1.4V43.4z"/>
	<path class="st1" d="M177,43.4c-0.3,0.1-0.7,0.3-1.3,0.4c-0.5,0.1-1.2,0.2-1.8,0.2c-1.3,0-2.2-0.2-2.8-0.7
		c-0.6-0.5-0.9-1.3-0.9-2.4V19.2c0-1.1,0.2-2,0.7-2.7c0.4-0.7,1.1-1.3,2.1-1.9c1.3-0.8,2.9-1.4,4.9-2c2-0.5,4.1-0.8,6.5-0.8
		c3.9,0,5.8,1.1,5.8,3.3c0,0.5-0.1,1-0.3,1.5c-0.2,0.5-0.4,0.9-0.6,1.2c-0.4-0.1-1-0.2-1.6-0.3c-0.7-0.1-1.4-0.1-2.1-0.1
		c-1.8,0-3.4,0.2-4.8,0.6c-1.4,0.4-2.7,0.8-3.7,1.4V43.4z"/>
	<path class="st1" d="M196.5,31.6c0.6,2.5,1.8,4.4,3.6,5.6c1.8,1.2,4,1.8,6.8,1.8c1.8,0,3.5-0.3,5.1-0.9c1.5-0.6,2.8-1.2,3.7-1.8
		c1.2,0.7,1.8,1.7,1.8,3c0,0.7-0.3,1.4-0.9,2.1c-0.6,0.6-1.3,1.2-2.3,1.6s-2.2,0.8-3.5,1.1c-1.3,0.3-2.8,0.4-4.3,0.4
		c-2.5,0-4.9-0.4-6.9-1.1c-2.1-0.7-3.9-1.8-5.4-3.2c-1.5-1.4-2.6-3.1-3.5-5.2c-0.8-2.1-1.2-4.5-1.2-7.2c0-2.6,0.4-4.9,1.2-6.9
		c0.8-2,1.9-3.7,3.2-5c1.4-1.3,3-2.4,4.8-3.1c1.8-0.7,3.8-1.1,5.9-1.1c2.1,0,4,0.3,5.8,1c1.7,0.7,3.2,1.6,4.5,2.8
		c1.3,1.2,2.2,2.6,2.9,4.3c0.7,1.7,1,3.5,1,5.5c0,1.1-0.3,1.9-0.8,2.4c-0.5,0.5-1.3,0.8-2.3,1L196.5,31.6z M204.7,17.1
		c-2.4,0-4.4,0.8-6,2.4c-1.6,1.6-2.4,3.9-2.5,7l16.2-2.3c-0.2-2-0.9-3.7-2.2-5C208.8,17.8,207,17.1,204.7,17.1z"/>
	<path class="st1" d="M246.3,35c0,2.9-1.1,5.2-3.3,6.9c-2.2,1.7-5.4,2.5-9.5,2.5c-1.7,0-3.3-0.1-4.7-0.4c-1.4-0.3-2.7-0.6-3.7-1.1
		c-1-0.5-1.8-1.1-2.4-1.7c-0.6-0.7-0.9-1.4-0.9-2.2c0-0.7,0.2-1.3,0.5-1.8c0.3-0.6,0.8-1,1.3-1.4c1.2,0.8,2.6,1.5,4.2,2.2
		c1.6,0.7,3.4,1,5.5,1c2,0,3.5-0.3,4.5-1c1.1-0.7,1.6-1.7,1.6-2.9c0-1.1-0.4-2-1.1-2.6c-0.7-0.7-1.8-1.2-3.2-1.5l-4.5-1.2
		c-3-0.8-5.2-1.9-6.6-3.2c-1.4-1.4-2.1-3.2-2.1-5.6c0-1.3,0.3-2.5,0.8-3.6c0.5-1.1,1.3-2.1,2.3-2.9c1-0.8,2.3-1.4,3.9-1.9
		c1.5-0.5,3.3-0.7,5.3-0.7c1.6,0,3,0.1,4.3,0.4c1.3,0.2,2.4,0.6,3.4,1c0.9,0.4,1.7,0.9,2.2,1.5c0.5,0.6,0.8,1.3,0.8,2
		c0,0.7-0.2,1.3-0.5,1.8c-0.3,0.5-0.7,0.9-1.2,1.2c-0.8-0.5-2-1-3.5-1.6c-1.6-0.6-3.2-0.9-5-0.9c-1.8,0-3.3,0.3-4.3,1
		c-1.1,0.6-1.6,1.5-1.6,2.7c0,0.9,0.3,1.6,0.9,2.2s1.6,1,3.1,1.4l3.8,1c3.3,0.9,5.8,2.1,7.4,3.6C245.5,30.5,246.3,32.5,246.3,35z"/>
	<path class="st1" d="M255.3,31.6c0.6,2.5,1.8,4.4,3.6,5.6c1.8,1.2,4,1.8,6.8,1.8c1.8,0,3.5-0.3,5.1-0.9c1.5-0.6,2.8-1.2,3.7-1.8
		c1.2,0.7,1.8,1.7,1.8,3c0,0.7-0.3,1.4-0.9,2.1c-0.6,0.6-1.3,1.2-2.3,1.6c-1,0.5-2.2,0.8-3.5,1.1c-1.3,0.3-2.8,0.4-4.3,0.4
		c-2.5,0-4.9-0.4-6.9-1.1c-2.1-0.7-3.9-1.8-5.4-3.2c-1.5-1.4-2.6-3.1-3.5-5.2c-0.8-2.1-1.2-4.5-1.2-7.2c0-2.6,0.4-4.9,1.2-6.9
		c0.8-2,1.9-3.7,3.2-5c1.4-1.3,3-2.4,4.8-3.1c1.8-0.7,3.8-1.1,5.9-1.1c2.1,0,4,0.3,5.8,1c1.7,0.7,3.2,1.6,4.5,2.8
		c1.2,1.2,2.2,2.6,2.9,4.3c0.7,1.7,1,3.5,1,5.5c0,1.1-0.3,1.9-0.8,2.4c-0.5,0.5-1.3,0.8-2.3,1L255.3,31.6z M263.5,17.1
		c-2.4,0-4.4,0.8-6,2.4c-1.6,1.6-2.4,3.9-2.5,7l16.2-2.3c-0.2-2-0.9-3.7-2.2-5C267.6,17.8,265.8,17.1,263.5,17.1z"/>
	<path class="st1" d="M285.3,43.9c-1.3,0-2.2-0.2-2.8-0.7c-0.6-0.5-0.9-1.3-0.9-2.4V0.8c0.3-0.1,0.7-0.2,1.3-0.3
		c0.6-0.1,1.2-0.2,1.8-0.2c1.3,0,2.2,0.2,2.8,0.7c0.6,0.5,0.9,1.3,0.9,2.4v39.9c-0.4,0.1-0.8,0.3-1.3,0.4
		C286.6,43.9,286,43.9,285.3,43.9z"/>
	<path class="st1" d="M297.1,43.9c-1.3,0-2.2-0.2-2.8-0.7c-0.6-0.5-0.9-1.3-0.9-2.4V0.8c0.3-0.1,0.7-0.2,1.3-0.3
		c0.6-0.1,1.2-0.2,1.8-0.2c1.3,0,2.2,0.2,2.8,0.7c0.6,0.5,0.9,1.3,0.9,2.4v39.9c-0.4,0.1-0.8,0.3-1.3,0.4
		C298.4,43.9,297.8,43.9,297.1,43.9z"/>
	<path class="st1" d="M310.6,31.6c0.6,2.5,1.8,4.4,3.6,5.6c1.8,1.2,4,1.8,6.8,1.8c1.8,0,3.5-0.3,5.1-0.9c1.5-0.6,2.8-1.2,3.7-1.8
		c1.2,0.7,1.8,1.7,1.8,3c0,0.7-0.3,1.4-0.9,2.1c-0.6,0.6-1.3,1.2-2.3,1.6c-1,0.5-2.2,0.8-3.5,1.1c-1.3,0.3-2.8,0.4-4.3,0.4
		c-2.5,0-4.9-0.4-6.9-1.1c-2.1-0.7-3.9-1.8-5.4-3.2c-1.5-1.4-2.6-3.1-3.5-5.2c-0.8-2.1-1.2-4.5-1.2-7.2c0-2.6,0.4-4.9,1.2-6.9
		c0.8-2,1.9-3.7,3.2-5c1.4-1.3,3-2.4,4.8-3.1c1.8-0.7,3.8-1.1,5.9-1.1c2.1,0,4,0.3,5.8,1c1.7,0.7,3.2,1.6,4.5,2.8
		c1.2,1.2,2.2,2.6,2.9,4.3c0.7,1.7,1,3.5,1,5.5c0,1.1-0.3,1.9-0.8,2.4c-0.5,0.5-1.3,0.8-2.3,1L310.6,31.6z M318.8,17.1
		c-2.4,0-4.4,0.8-6,2.4c-1.6,1.6-2.4,3.9-2.5,7l16.2-2.3c-0.2-2-0.9-3.7-2.2-5C323,17.8,321.1,17.1,318.8,17.1z"/>
	<path class="st1" d="M342.9,43.4c-0.3,0.1-0.7,0.3-1.3,0.4c-0.5,0.1-1.2,0.2-1.8,0.2c-1.3,0-2.2-0.2-2.8-0.7
		c-0.6-0.5-0.9-1.3-0.9-2.4V19.2c0-1.1,0.2-2,0.7-2.7c0.4-0.7,1.1-1.3,2.1-1.9c1.3-0.8,2.9-1.4,4.9-2c2-0.5,4.1-0.8,6.5-0.8
		c3.9,0,5.8,1.1,5.8,3.3c0,0.5-0.1,1-0.3,1.5c-0.2,0.5-0.4,0.9-0.6,1.2c-0.4-0.1-1-0.2-1.6-0.3c-0.7-0.1-1.4-0.1-2.1-0.1
		c-1.8,0-3.4,0.2-4.8,0.6c-1.4,0.4-2.7,0.8-3.7,1.4V43.4z"/>
	<circle class="st0" cx="31.9" cy="23" r="3.9"/>
	<path class="st1" d="M25.9,10.3c1.5-0.7,3.1-1.1,4.8-1.1c1.6,0,3.3,0.3,5,1.1c1.7,0.7,3.3,1.9,5,3.4c1.6,1.5,2.8,3.1,3.7,4.7
		c0.8,1.6,1.3,3.2,1.4,4.9c0.1,1.6-0.2,3.3-0.8,4.8c-0.6,1.6-1.6,3.1-2.9,4.5L26.7,48.9c-0.2-0.1-0.6-0.3-1-0.6
		c-0.5-0.3-0.9-0.6-1.3-1c-0.8-0.7-1.3-1.5-1.4-2.1c-0.1-0.7,0.2-1.4,0.9-2.2l13.3-14.3c1.8-2,2.7-4,2.5-6c-0.1-2-1-3.8-2.7-5.3
		c-0.8-0.8-1.7-1.4-2.7-1.7c-0.9-0.4-1.9-0.6-2.9-0.6c-1,0-2,0.3-3,0.7c-1,0.5-1.9,1.2-2.9,2.2L20,24.7c-0.2-0.1-0.6-0.3-1-0.6
		c-0.5-0.3-0.9-0.6-1.3-1c-0.8-0.7-1.3-1.5-1.4-2.1c-0.1-0.7,0.2-1.4,0.9-2.2l4.3-5.3C22.9,12.1,24.3,11,25.9,10.3z"/>
	<circle class="st1" cx="14.1" cy="26.6" r="3.9"/>
</g>
</svg>
